#!OML:ASF F:\VICON\USERDATA\INSTALL\rory3\rory3.ASF
:FULLY-SPECIFIED
:DEGREES
523
root 10.6317 17.9265 10.8037 0.389452 -9.89839 2.18463
lowerback 12.4038 0.681101 0.0931223
upperback 0.414153 1.09634 2.70937
thorax -6.58411 0.574345 2.6135
lowerneck -8.03745 -6.32312 -10.8348
upperneck 41.3857 -11.0972 8.83543
head 17.9417 -5.23704 4.11618
rclavicle -3.65764e-014 -2.70347e-014
rhumerus -41.3769 26.2076 -97.7753
rradius 94.9745
rwrist -12.3085
rhand -19.5541 14.6121
rfingers 7.12502
rthumb 6.77024 -15.2597
lclavicle -3.65764e-014 -2.70347e-014
lhumerus -41.4229 -27.3485 105.59
lradius 93.0679
lwrist 35.552
lhand -22.0301 31.2219
lfingers 7.12502
lthumb 4.37973 61.1567
rfemur -6.27905 -3.7345 23.2761
rtibia 29.4256
rfoot -19.6612 8.74144
rtoes 16.9869
lfemur -11.7077 -9.23058 -17.4613
ltibia 27.2309
lfoot -16.1725 -25.2484
ltoes -5.99131
524
root 10.6375 17.9245 10.8306 0.350815 -10.5589 2.2413
lowerback 12.3485 0.652996 -0.00525118
upperback 0.42344 1.04705 2.76095
thorax -6.54377 0.553722 2.733
lowerneck -8.06861 -6.23647 -10.8676
upperneck 41.4086 -10.9241 8.72485
head 17.9249 -5.18914 4.09999
rclavicle -2.5842e-014 1.11319e-014
rhumerus -41.3869 26.3073 -97.8403
rradius 95.0054
rwrist -12.472
rhand -19.6888 14.4999
rfingers 7.12502
rthumb 6.64024 -15.376
lclavicle -2.5842e-014 1.11319e-014
lhumerus -41.3304 -27.3915 105.62
lradius 93.0077
lwrist 35.5054
lhand -22.2098 30.7578
lfingers 7.12502
lthumb 4.20622 60.696
rfemur -6.13785 -3.36334 23.188
rtibia 29.3358
rfoot -19.7259 8.85247
rtoes 16.7159
lfemur -11.6834 -9.15343 -17.6424
ltibia 26.7097
lfoot -14.7194 -26.755
ltoes 1.18218
525
root 10.6435 17.9223 10.8647 0.308668 -11.3109 2.22695
lowerback 12.248 0.667253 -0.0320243
upperback 0.41988 1.06465 2.82538
thorax -6.49385 0.563789 2.81365
lowerneck -8.02136 -6.16098 -10.9764
upperneck 41.4913 -10.8169 8.73351
head 17.9543 -5.16952 4.148
rclavicle 3.35946e-014 4.77083e-015
rhumerus -41.5259 26.3887 -97.9148
rradius 95.1456
rwrist -12.5743
rhand -20.005 14.6081
rfingers 7.12502
rthumb 6.33494 -15.2772
lclavicle 3.35946e-014 4.77083e-015
lhumerus -41.371 -27.4288 105.7
lradius 93.0066
lwrist 35.3416
lhand -22.2664 30.4633
lfingers 7.12502
lthumb 4.15153 60.4026
rfemur -5.94921 -2.90059 23.1627
rtibia 29.2535
rfoot -19.9126 8.97303
rtoes 16.1237
lfemur -11.6205 -9.14936 -17.7483
ltibia 26.2384
lfoot -12.6915 -28.3358
ltoes 1.38143
526
root 10.6513 17.9166 10.8971 0.316188 -12.0448 2.04797
lowerback 12.1941 0.677904 0.154134
upperback 0.369424 1.10856 2.88133
thorax -6.51713 0.580719 2.75998
lowerneck -7.84045 -6.08616 -11.0276
upperneck 41.545 -10.7364 8.74554
head 17.9299 -5.15562 4.18407
rclavicle 2.20651e-014 -1.43125e-014
rhumerus -41.7656 26.3727 -98.0611
rradius 95.361
rwrist -12.6146
rhand -20.3806 14.8902
rfingers 7.12502
rthumb 5.97238 -15.0056
lclavicle 2.20651e-014 -1.43125e-014
lhumerus -41.5381 -27.5697 105.783
lradius 93.0843
lwrist 35.0624
lhand -22.2508 30.3352
lfingers 7.12502
lthumb 4.16659 60.2742
rfemur -5.78276 -2.53187 23.3041
rtibia 29.1704
rfoot -20.2641 8.96421
rtoes 14.7102
lfemur -11.5817 -9.22966 -17.659
ltibia 25.8079
lfoot -10.9364 -29.5109
ltoes 3.83681
527
root 10.6602 17.9097 10.9284 0.320721 -12.6586 1.91678
lowerback 12.0928 0.659609 0.329845
upperback 0.404317 1.10572 2.89012
thorax -6.41976 0.573151 2.67017
lowerneck -7.87704 -6.07839 -10.8745
upperneck 41.5132 -10.6909 8.55381
head 17.8792 -5.13858 4.06801
rclavicle 1.0138e-014 3.49861e-014
rhumerus -41.7913 26.2421 -98.1575
rradius 95.3817
rwrist -12.5086
rhand -20.5541 15.0189
rfingers 7.12502
rthumb 5.80491 -14.8816
lclavicle 1.0138e-014 3.49861e-014
lhumerus -41.4963 -27.9006 105.738
lradius 93.1275
lwrist 34.9102
lhand -22.2508 30.3312
lfingers 7.12502
lthumb 4.16655 60.2702
rfemur -5.60197 -2.26628 23.364
rtibia 29.075
rfoot -20.5102 9.13584
rtoes 14.5702
lfemur -11.5579 -9.31769 -17.6177
ltibia 25.4456
lfoot -10.0076 -30.0799
ltoes 7.09382
528
root 10.6709 17.9025 10.9614 0.298606 -13.2849 1.88045
lowerback 11.9394 0.626514 0.393155
upperback 0.489639 1.06464 2.89816
thorax -6.24019 0.54977 2.64982
lowerneck -8.05032 -6.07789 -10.8009
upperneck 41.519 -10.6524 8.41609
head 17.9018 -5.12721 3.98951
rclavicle -2.38542e-014 2.70347e-014
rhumerus -41.7649 26.1712 -98.1943
rradius 95.3647
rwrist -12.4243
rhand -20.4574 15.2556
rfingers 7.12502
rthumb 5.89818 -14.6423
lclavicle -2.38542e-014 2.70347e-014
lhumerus -41.3154 -28.1949 105.64
lradius 93.1132
lwrist 34.7683
lhand -22.2079 30.3502
lfingers 7.12502
lthumb 4.20805 60.2884
rfemur -5.46118 -2.12544 23.2877
rtibia 29.0074
rfoot -20.5763 9.59841
rtoes 14.9551
lfemur -11.5121 -9.35968 -17.6884
ltibia 25.1503
lfoot -9.04092 -30.402
ltoes 10.4279
529
root 10.6813 17.8951 10.9948 0.293358 -14.0251 1.79692
lowerback 11.8252 0.592969 0.439959
upperback 0.513268 1.0256 2.94463
thorax -6.14942 0.529226 2.67925
lowerneck -8.17101 -6.02857 -10.8982
upperneck 41.6252 -10.5773 8.42279
head 17.9947 -5.11546 4.02445
rclavicle -1.53064e-014 -1.43125e-014
rhumerus -41.7612 26.4557 -98.2662
rradius 95.4024
rwrist -12.5284
rhand -20.5854 15.4404
rfingers 7.12502
rthumb 5.77467 -14.4609
lclavicle -1.53064e-014 -1.43125e-014
lhumerus -41.3068 -28.2273 105.65
lradius 93.1401
lwrist 34.4679
lhand -22.3879 30.2108
lfingers 7.12502
lthumb 4.03423 60.1524
rfemur -5.37881 -1.9802 23.2502
rtibia 28.9844
rfoot -20.6103 10.2504
rtoes 15.7862
lfemur -11.444 -9.20648 -17.7126
ltibia 24.9368
lfoot -8.31496 -30.2658
ltoes 12.5344
530
root 10.6925 17.8897 11.0278 0.248668 -14.7096 1.78469
lowerback 11.783 0.577535 0.473892
upperback 0.49697 1.00791 2.93011
thorax -6.1413 0.519277 2.64781
lowerneck -8.13415 -5.99603 -10.9151
upperneck 41.6471 -10.5488 8.41935
head 17.994 -5.11486 4.03132
rclavicle -1.68967e-014 -3.18055e-015
rhumerus -41.6403 26.6458 -98.2933
rradius 95.3847
rwrist -12.6996
rhand -20.6487 15.2951
rfingers 7.12502
rthumb 5.71357 -14.6079
lclavicle -1.68967e-014 -3.18055e-015
lhumerus -41.3802 -28.329 105.717
lradius 93.1918
lwrist 34.1366
lhand -22.6614 30.1764
lfingers 7.12502
lthumb 3.77008 60.1228
rfemur -5.26669 -1.87304 23.1235
rtibia 28.9764
rfoot -20.4304 10.9655
rtoes 17.2708
lfemur -11.3344 -9.0813 -17.8085
ltibia 24.8439
lfoot -8.01763 -29.4681
ltoes 14.125
531
root 10.7056 17.881 11.0603 0.240528 -15.4004 1.65285
lowerback 11.7562 0.564666 0.673075
upperback 0.477196 1.01499 2.89846
thorax -6.14336 0.516455 2.50042
lowerneck -7.98268 -5.96983 -10.8735
upperneck 41.5584 -10.5582 8.45406
head 17.9001 -5.11836 4.03642
rclavicle -3.24019e-014 -3.18055e-015
rhumerus -41.6128 26.5181 -98.4096
rradius 95.2152
rwrist -12.5965
rhand -20.7143 15.4023
rfingers 7.12502
rthumb 5.65016 -14.5023
lclavicle -3.24019e-014 -3.18055e-015
lhumerus -41.3622 -28.5458 105.723
lradius 93.1294
lwrist 33.8382
lhand -22.6123 30.1548
lfingers 7.12502
lthumb 3.81748 60.1003
rfemur -5.20878 -1.88251 23.1206
rtibia 28.9939
rfoot -20.2578 11.6003
rtoes 17.5505
lfemur -11.1575 -9.29809 -17.7102
ltibia 24.8564
lfoot -7.14752 -28.3022
ltoes 17.0071
